# xmcd
#
# Track frame offsets:
#	180
#	14365
#	26715
#	37131
#	47917
#	59545
#	69619
#	82787
#	96380
#	112287
#	124431
#	140817
#	159556
#	172203
#	183786
#	195178
#
# Disc length: 2738 seconds
#
# Revision: 3
# Processed by: cddbd v1.5.2PL0 Copyright (c) Steve Scherf et al.
# Submitted via: EasyCDDAExtractor 12.0.1.1
#
DISCID=ee0ab010
DTITLE=Various Artist - Classic Country
DYEAR=1900
DGENRE=Country
TTITLE0=Glen Campbell  - Rhinestone Cowboy
TTITLE1=Billie Jo Spears  - What I've Got In Mind
TTITLE2=Bobby Darin  - Eighteen Yellow Roses
TTITLE3=Faron Young  - Hello Walls
TTITLE4=Wanda Jackson  - In The Middle Of A Heartache
TTITLE5=Willie Nelson  - Touch Me
TTITLE6=Crystal Gayle  - Talking In Your Sleep
TTITLE7=John Stewart  - July, Your A Woman
TTITLE8=The Band  - The Night They Drove Old Dixie Down
TTITLE9=Susan Raye  - Desperado
TTITLE10=Clint Beattie  - I Believe (The Wheel Does Turn)
TTITLE11=Juice Newton  - Angel Of The Morning
TTITLE12=Dr Hook  - Only Sixteen
TTITLE13=Jody Miller  - He Walks Like A Man
TTITLE14=Sonny James  - Young Love
TTITLE15=Frank Ifield  - I Remember You
EXTD=
EXTT0=
EXTT1=
EXTT2=
EXTT3=
EXTT4=
EXTT5=
EXTT6=
EXTT7=
EXTT8=
EXTT9=
EXTT10=
EXTT11=
EXTT12=
EXTT13=
EXTT14=
EXTT15=
PLAYORDER=
